# Blender v2.80 (sub 75) OBJ File: 'drone-swept.blend'
# www.blender.org
mtllib drone-swept.mtl
o Cube
v 0.000000 0.475026 1.414214
v 1.414214 1.000000 -0.000000
v 0.000000 1.000000 -0.664214
v 0.000000 -0.475026 1.414214
v -0.000000 -1.000000 -0.664214
v 1.414213 -1.000000 -0.000000
v 0.000001 7.000000 0.243472
v -0.243472 7.000000 0.000000
v 0.243473 7.000000 -0.000000
v 0.000001 7.000000 -0.243472
v -0.409343 -3.000000 0.000000
v 0.409342 -3.000000 -0.000000
v -0.000000 -3.000000 -0.409342
v -0.121736 7.000000 0.121736
v 0.121737 7.000000 -0.121736
v 0.121737 7.000000 0.121736
v -0.121736 7.000000 -0.121736
v 0.000001 8.000000 0.000000
v -1.414213 1.000000 0.000000
v -5.414214 -2.344684 -0.819733
v -6.538173 -2.126311 -0.989930
v -1.389960 -1.000000 -0.097014
v -1.389960 1.000000 -0.097014
v -5.389960 -2.344684 -0.916748
v -6.508885 -2.126311 -1.107084
v 5.414214 -2.344685 -0.819734
v 6.538173 -2.126312 -0.989930
v 1.389960 -1.000000 -0.097014
v 1.389960 1.000000 -0.097014
v 5.389960 -2.344685 -0.916748
v 6.508885 -2.126312 -1.107084
v -1.414214 -1.000000 0.000000
v -0.707107 -0.737513 0.707107
v 0.707107 -0.737513 0.707107
v 1.060660 -0.868757 0.353553
v -0.000000 -3.000000 0.409342
v -1.060660 -0.868756 0.353553
v -1.000000 -3.000000 1.409342
v -1.163419 -2.302918 1.353553
v 1.000000 -3.000000 1.409342
v 1.163419 -2.302918 1.353553
vt 0.625000 0.000000
vt 0.375000 0.250000
vt 0.375000 0.000000
vt 0.625000 0.250000
vt 0.375000 0.500000
vt 0.375000 0.250000
vt 0.375000 0.500000
vt 0.625000 0.500000
vt 0.625000 0.500000
vt 0.625000 0.750000
vt 0.375000 1.000000
vt 0.375000 0.750000
vt 0.687500 0.500000
vt 0.750000 0.500000
vt 0.625000 0.750000
vt 0.625000 0.875000
vt 0.375000 0.250000
vt 0.500000 0.250000
vt 0.375000 0.250000
vt 0.375000 0.125000
vt 0.875000 0.750000
vt 0.875000 0.750000
vt 0.750000 0.750000
vt 0.625000 0.500000
vt 0.375000 0.750000
vt 0.875000 0.500000
vt 0.218750 0.125000
vt 0.437500 0.250000
vt 0.625000 0.500000
vt 0.250000 0.625000
vt 0.125000 0.750000
vt 0.125000 0.625000
vt 0.250000 0.750000
vt 0.625000 0.250000
vt 0.375000 0.500000
vt 0.250000 0.500000
vt 0.625000 0.125000
vt 0.625000 0.187500
vt 0.625000 1.000000
vt 0.875000 0.500000
vt 0.625000 1.000000
vt 0.375000 0.000000
vt 0.625000 0.750000
vt 0.000000 0.000000
vt 0.375000 0.625000
vt 0.000000 0.000000
vt 0.000000 0.000000
vt 0.000000 0.000000
vt 0.000000 0.000000
vt 0.000000 0.000000
vt 0.000000 0.000000
vt 0.000000 0.000000
vt 0.000000 0.000000
vt 0.000000 0.000000
vt 0.000000 0.000000
vt 0.000000 0.000000
vt 0.625000 0.250000
vt 0.375000 0.250000
vt 0.625000 0.250000
vt 0.625000 0.250000
vt 0.000000 0.000000
vt 0.000000 0.000000
vt 0.000000 0.000000
vt 0.000000 0.000000
vt 0.375000 0.250000
vt 0.000000 0.000000
vt 0.000000 0.000000
vt 0.000000 0.000000
vt 0.000000 0.000000
vt 0.000000 0.000000
vt 0.000000 0.000000
vt 0.000000 0.000000
vn 0.7071 -0.0000 0.7071
vn 0.4251 -0.0000 -0.9051
vn -0.6663 -0.3348 -0.6663
vn -0.4251 0.0000 -0.9051
vn -0.7071 0.0000 0.7071
vn -0.7005 0.1367 -0.7005
vn 0.7062 0.0495 -0.7062
vn 0.7005 0.1367 0.7005
vn -0.7015 0.1259 0.7015
vn 0.0000 -1.0000 0.0000
vn 0.6208 -0.2899 0.7284
vn -0.6208 -0.2899 0.7284
vn 0.4223 -0.1146 -0.8992
vn -0.6969 0.1697 -0.6969
vn 0.6969 0.1697 -0.6969
vn -0.6969 0.1697 0.6969
vn -0.4223 -0.1146 -0.8992
vn -0.7062 0.0495 -0.7062
vn -0.4240 0.0730 -0.9027
vn 0.7005 0.1367 -0.7005
vn 0.4240 0.0730 -0.9027
vn 0.7015 0.1259 0.7015
vn 0.6763 0.1310 0.7249
vn -0.7005 0.1367 0.7005
vn -0.6763 0.1310 0.7249
vn 0.6663 -0.3348 0.6663
vn -0.6663 -0.3348 0.6663
vn 0.6663 -0.3348 -0.6663
vn 0.6969 0.1697 0.6969
vn -0.1897 0.0000 0.9818
vn 0.1936 -0.0000 -0.9811
vn -0.4991 0.8575 -0.1248
vn -0.1838 -0.9819 -0.0460
vn 0.3037 -0.9497 0.0759
vn 0.9701 -0.0000 0.2425
vn -0.3037 -0.9497 0.0759
vn -0.1795 0.0643 -0.9816
vn -0.9701 0.0000 0.2425
vn 0.4991 0.8575 -0.1248
vn 0.1838 -0.9819 -0.0460
vn 0.1677 -0.0989 0.9809
vn -0.1677 -0.0989 0.9809
vn 0.1795 0.0643 -0.9816
vn -0.1936 0.0000 -0.9811
vn 0.1897 0.0000 0.9818
vn 0.6902 0.2171 0.6902
vn 0.6902 -0.2171 -0.6902
vn 0.7089 0.3685 0.6014
vn 0.7089 -0.3685 -0.6014
usemtl Material
s off
f 4/1/1 2/2/1 1/3/1
f 2/4/2 5/5/2 3/6/2
f 13/7/3 11/8/3 32/9/3
f 19/10/4 5/11/4 32/12/4
f 19/10/5 37/13/5 33/14/5
f 19/10/6 8/15/6 17/16/6
f 3/6/7 10/17/7 15/18/7
f 2/2/8 9/19/8 16/20/8
f 1/21/9 7/22/9 14/23/9
f 12/24/10 11/25/10 13/7/10
f 36/26/11 35/27/11 34/28/11
f 36/26/12 33/14/12 37/13/12
f 6/29/13 13/7/13 5/5/13
f 18/30/14 10/31/14 17/32/14
f 15/33/15 18/30/15 9/34/15
f 7/35/16 18/30/16 14/36/16
f 34/37/1 35/38/1 2/2/1
f 2/4/2 6/29/2 5/5/2
f 5/11/17 13/7/17 32/12/17
f 19/10/4 3/39/4 5/11/4
f 4/40/5 1/21/5 19/10/5
f 10/41/18 3/39/18 17/16/18
f 3/39/19 19/10/19 17/16/19
f 9/34/20 2/4/20 15/18/20
f 2/4/21 3/6/21 15/18/21
f 7/42/22 1/3/22 16/20/22
f 1/3/23 2/2/23 16/20/23
f 8/15/24 19/10/24 14/23/24
f 19/10/25 1/21/25 14/23/25
f 12/24/10 36/43/10 11/25/10
f 36/26/26 12/24/26 6/44/26
f 32/9/27 11/8/27 36/26/27
f 6/29/28 12/24/28 13/7/28
f 18/30/15 15/33/15 10/31/15
f 9/34/29 18/30/29 16/45/29
f 7/35/29 16/45/29 18/30/29
f 8/15/16 14/36/16 18/30/16
f 17/32/14 8/15/14 18/30/14
f 21/46/30 32/47/30 19/48/30
f 22/49/31 25/50/31 23/51/31
f 21/46/32 23/51/32 25/50/32
f 21/46/33 24/52/33 20/53/33
f 20/53/34 22/49/34 32/47/34
f 32/47/35 23/51/35 19/48/35
f 26/54/36 28/55/36 30/56/36
f 28/57/37 31/58/37 30/59/37
f 2/2/38 28/57/38 6/60/38
f 27/61/39 29/62/39 2/63/39
f 26/54/40 31/64/40 27/61/40
f 27/61/41 6/44/41 26/54/41
f 21/46/42 20/53/42 32/47/42
f 22/49/43 24/52/43 25/50/43
f 21/46/32 19/48/32 23/51/32
f 21/46/33 25/50/33 24/52/33
f 20/53/34 24/52/34 22/49/34
f 32/47/35 22/49/35 23/51/35
f 26/54/36 6/44/36 28/55/36
f 28/57/44 29/65/44 31/58/44
f 2/2/38 29/65/38 28/57/38
f 27/61/39 31/64/39 29/62/39
f 26/54/40 30/56/40 31/64/40
f 27/61/45 2/63/45 6/44/45
f 36/66/46 39/67/46 38/68/46
f 36/66/47 41/69/47 40/70/47
f 33/14/5 4/40/5 19/10/5
f 19/10/5 32/9/5 37/13/5
f 36/26/11 6/44/11 35/27/11
f 34/28/11 4/40/11 36/26/11
f 37/13/12 32/9/12 36/26/12
f 36/26/12 4/40/12 33/14/12
f 2/2/1 4/1/1 34/37/1
f 35/38/1 6/60/1 2/2/1
f 36/66/48 37/71/48 39/67/48
f 36/66/49 35/72/49 41/69/49
